# AST/ASF file generated using VICON BodyLanguage
# -----------------------------------------------
:version 1.10
:name VICON
:units
  mass 1.0
  length 0.45
  angle deg
:documentation
   .ast/.asf automatically generated from VICON data using
   VICON BodyBuilder and BodyLanguage model FoxedUp or BRILLIANT.MOD
:root
   order TX TY TZ RX RY RZ
   axis XYZ
   position 0 0 0  
   orientation 0 0 0 
:bonedata
  begin
     id 1 
     name lhipjoint
     direction 0.577973 -0.728611 0.367523 
     length 2.48544 
     axis 0 0 0  XYZ
  end
  begin
     id 2 
     name lfemur
     direction 0.34202 -0.939693 0  
     length 7.1921  
     axis 0 0 20  XYZ
    dof rx ry rz
    limits (-160.0 20.0)
           (-70.0 70.0)
           (-60.0 70.0)
  end
  begin
     id 3 
     name ltibia
     direction 0.34202 -0.939693 0   
     length 7.71059   
     axis 0 0 20   XYZ
    dof rx
    limits (-10.0 170.0)
  end
  begin
     id 4 
     name lfoot
     direction 0.089538 -0.246004 0.965124   
     length 2.19909   
     axis -90 7.62852e-016 20   XYZ
    dof rx rz
    limits (-45.0 90.0)
           (-70.0 20.0)
  end
  begin
     id 5 
     name ltoes
     direction 1.53544e-011 -4.21829e-011 1   
     length 1.10116   
     axis -90 7.62852e-016 20   XYZ
    dof rx
    limits (-90.0 20.0)
  end
  begin
     id 6 
     name rhipjoint
     direction -0.554414 -0.743062 0.374812   
     length 2.4371  
     axis 0 0 0  XYZ 
  end
  begin
     id 7 
     name rfemur
     direction -0.34202 -0.939693 0   
     length 7.47254   
     axis 0 0 -20   XYZ
    dof rx ry rz
    limits (-160.0 20.0)
           (-70.0 70.0)
           (-70.0 60.0)
  end
  begin
     id 8 
     name rtibia
     direction -0.34202 -0.939693 0   
     length 7.65855   
     axis 0 0 -20   XYZ
    dof rx
    limits (-10.0 170.0)
 end
 begin
     id 9 
     name rfoot
     direction -0.133779 -0.367555 0.92033   
     length 2.43006  
     axis -90 -7.62852e-016 -20   XYZ
    dof rx rz
    limits (-45.0 90.0)
           (-20.0 70.0)
  end
  begin
     id 10 
     name rtoes
     direction -1.53563e-011 -4.21889e-011 1   
     length 1.19625   
     axis -90 -7.62852e-016 -20   XYZ
    dof rx
    limits (-90.0 20.0)
  end
  begin
     id 11 
     name lowerback
     direction 0.0249066 0.998043 -0.0573585   
     length 2.08485   
     axis 0 0 0   XYZ
    dof rx ry rz
    limits (-20.0 45.0)
           (-30.0 30.0)
           (-30.0 30.0)
  end
  begin
     id 12 
     name upperback
     direction 0.0237884 0.999673 0.00943178   
     length 2.08515   
     axis 0 0 0   XYZ
    dof rx ry rz
    limits (-20.0 45.0)
           (-30.0 30.0)
           (-30.0 30.0)
  end
  begin
     id 13 
     name thorax
     direction 0.0106671 0.999301 0.0358174   
     length 2.09037   
     axis 0 0 0   XYZ
    dof rx ry rz
    limits (-20.0 45.0)
           (-30.0 30.0)
           (-30.0 30.0)
  end
  begin
     id 14 
     name lowerneck
     direction -0.0580016 0.987052 0.149546   
     length 1.84454   
     axis 0 0 0   XYZ
    dof rx ry rz
    limits (-20.0 45.0)
           (-30.0 30.0)
           (-30.0 30.0)
  end
  begin
     id 15 
     name upperneck
     direction 0.079456 0.981963 -0.171567   
     length 1.88141   
     axis 0 0 0   XYZ
    dof rx ry rz
    limits (-20.0 45.0)
           (-30.0 30.0)
           (-30.0 30.0)
  end
  begin
     id 16
     name head
     direction 0.0262167 0.9967 -0.0768276  
     length 1.89541  
     axis 0 0 0   XYZ
    dof rx ry rz
    limits (-20.0 45.0)
           (-30.0 30.0)
           (-30.0 30.0)
  end
  begin
     id 17 
     name lclavicle
     direction 0.946135 0.322134 -0.0325326  
     length 3.949  
     axis 0 0 0   XYZ
    dof ry rz
    limits (-20.0 10.0)
           (0.0 20.0)
  end
  begin
     id 18 
     name lhumerus
     direction 1 -4.48964e-011 1.94005e-028   
     length 5.10995   
     axis 180 -30 -90   XYZ
    dof rx ry rz
    limits (-60.0 90.0)
           (-90.0 90.0)
           (-90.0 90.0)
  end
  begin
     id 19
     name lradius
     direction 1 -4.48976e-011 2.87852e-027   
     length 3.21207   
     axis 180 -30 -90   XYZ
    dof rx
    limits (-10.0 170.0)
  end
  begin
     id 20
     name lwrist
     direction 1 -4.48963e-011 1.9975e-027   
     length 1.60604   
     axis 2.96054e-016 90 90   XYZ
    dof ry
    limits (-180.0 0.0)
 end
  begin
     id 21 
     name lhand
     direction 1 -4.48919e-011 4.00227e-027   
     length 0.63349   
     axis -2.5488e-015 90 90   XYZ
    dof rx rz
    limits (-90.0 90.0)
           (-45.0 45.0)
  end
  begin
     id 22 
     name lfingers
     direction 1 -4.49037e-011 7.9652e-027   
     length 0.510736   
     axis -5.0975e-015 90 90   XYZ
    dof rx
    limits (0.0 90.0)
  end
  begin
     id 23
     name lthumb
     direction 0.707107 -6.34922e-011 0.707107   
     length 0.733318   
     axis -90 45 -4.48553e-014   XYZ
    dof rx rz
    limits (-45.0 45.0)
           (-45.0 45.0)
  end
  begin
     id 24 
     name rclavicle
     direction -0.940085 0.328911 -0.0897654   
     length 3.93848  
     axis 0 0 0   XYZ 
    dof ry rz
    limits (-10.0 20.0)
           (-20.0 0.0)
  end
  begin
     id 25 
     name rhumerus
     direction -1 -4.48958e-011 3.02044e-027  
     length 5.25109   
     axis 180 30 90   XYZ
    dof rx ry rz
    limits (-90.0 60.0)
           (-90.0 90.0)
           (-90.0 90.0)
  end
  begin
     id 26 
     name rradius
     direction -1 -4.4897e-011 9.78352e-028   
     length 3.28364   
     axis 180 30 90   XYZ
    dof rx
    limits (-10.0 170.0)
  end
  begin
     id 27 
     name rwrist
     direction -1 -4.48943e-011 1.99918e-027   
     length 1.64182   
     axis 2.96054e-016 -90 -90   XYZ
    dof ry
    limits (-180.0 0.0)
  end
  begin
     id 28
     name rhand
     direction -1 -4.49024e-011 3.98478e-027   
     length 0.599745   
     axis -2.5488e-015 -90 -90   XYZ
    dof rx rz
    limits (-90.0 90.0)
           (-45.0 45.0)
  end
  begin
     id 29
     name rfingers
     direction -1 -4.48914e-011 8.00621e-027   
     length 0.48353   
     axis -5.0975e-015 -90 -90   XYZ
    dof rx
    limits (0.0 90.0)
  end
  begin
     id 30
     name rthumb
     direction -0.707107 -6.34992e-011 0.707107   
     length 0.694255   
     axis -90 -45 4.48553e-014   XYZ
    dof rx rz
    limits (-45.0 45.0)
           (-45.0 45.0)
  end
:hierarchy
  begin
    root lhipjoint rhipjoint lowerback
    lhipjoint lfemur
    lfemur ltibia
    ltibia lfoot
    lfoot ltoes
    rhipjoint rfemur
    rfemur rtibia
    rtibia rfoot
    rfoot rtoes
    lowerback upperback
    upperback thorax
    thorax lowerneck lclavicle rclavicle
    lowerneck upperneck
    upperneck head
    lclavicle lhumerus
    lhumerus lradius
    lradius lwrist
    lwrist lhand lthumb
    lhand lfingers
    rclavicle rhumerus
    rhumerus rradius
    rradius rwrist
    rwrist rhand rthumb
    rhand rfingers
  end

#!OML:ASF E:\CV Data\Top Level 1\Subject 1\Session 1\player.ASF
:FULLY-SPECIFIED
:DEGREES
99
root 4.3919 17.7998 -27.5145 9.52268 -6.5201 -5.66626
lowerback 4.96666 1.04996 3.14888
upperback 0.852983 1.61158 2.4172
thorax -1.88964 0.788225 0.614841
lowerneck -14.4754 -8.80513 -13.0754
upperneck 37.9201 -10.8518 3.90335
head 17.3642 -5.83985 1.91483
rclavicle 4.87022e-015 1.98785e-016
rhumerus -10.6589 -2.4981 -87.8499
rradius 31.1082
rwrist 10.1649
rhand 20.6322 -11.7608
rfingers 7.12502
rthumb 45.1235 -35.2115
lclavicle 4.87022e-015 1.98785e-016
lhumerus -27.0794 2.15519 87.3651
lradius 33.3816
lwrist -2.70244
lhand -9.92951 12.971
lfingers 7.12502
lthumb 16.0515 42.3261
rfemur -18.2426 0.443642 24.5954
rtibia 28.3288
rfoot -16.0517 -16.6395
rtoes 3.14766
lfemur -20.2013 5.42013 -14.0011
ltibia 28.1724
lfoot -7.31789 18.4473
ltoes -0.776415
100
root 4.38466 17.8018 -27.526 9.63893 -6.17508 -5.72251
lowerback 5.046 1.05846 3.25369
upperback 0.869645 1.63146 2.40025
thorax -1.9132 0.797251 0.536167
lowerneck -14.437 -8.781 -13.0302
upperneck 37.859 -10.8817 4.04575
head 17.3315 -5.82506 1.96829
rclavicle 1.4561e-014 1.82882e-014
rhumerus -10.9583 -3.46577 -88.0373
rradius 29.6035
rwrist 10.9907
rhand 20.462 -10.7086
rfingers 7.12502
rthumb 44.9652 -34.2218
lclavicle 1.4561e-014 1.82882e-014
lhumerus -26.5864 1.59644 87.6334
lradius 33.793
lwrist -2.54749
lhand -10.1364 12.6498
lfingers 7.12502
lthumb 15.8523 42.0208
rfemur -18.3772 0.322982 24.719
rtibia 28.3012
rfoot -16.0307 -16.7976
rtoes 3.33138
lfemur -20.4744 5.38164 -13.9047
ltibia 28.224
lfoot -7.27335 18.1819
ltoes -0.955706
101
root 4.37737 17.8038 -27.5366 9.75428 -5.81014 -5.78396
lowerback 5.12643 1.05473 3.36737
upperback 0.872982 1.63635 2.38445
thorax -1.95102 0.798485 0.454515
lowerneck -14.3953 -8.75842 -12.9924
upperneck 37.804 -10.9149 4.19307
head 17.3031 -5.8124 2.0244
rclavicle -1.76421e-014 4.96962e-015
rhumerus -11.3482 -4.4801 -88.194
rradius 28.3317
rwrist 11.8769
rhand 19.7032 -9.67449
rfingers 7.12502
rthumb 44.2585 -33.4603
lclavicle -1.76421e-014 4.96962e-015
lhumerus -26.125 1.08851 87.8812
lradius 34.2905
lwrist -2.31133
lhand -10.2508 12.5694
lfingers 7.12502
lthumb 15.7422 41.9492
rfemur -18.5015 0.20545 24.8481
rtibia 28.2654
rfoot -16.0217 -16.968
rtoes 3.58506
lfemur -20.745 5.32848 -13.8027
ltibia 28.271
lfoot -7.23079 17.9186
ltoes -1.15133
102
root 4.37005 17.8056 -27.5463 9.86505 -5.43123 -5.84493
lowerback 5.20046 1.03772 3.47883
upperback 0.869147 1.62371 2.37228
thorax -1.99312 0.790867 0.379046
lowerneck -14.3559 -8.73446 -12.9683
upperneck 37.7581 -10.9436 4.34379
head 17.2815 -5.7997 2.08499
rclavicle -1.71452e-014 -3.18055e-015
rhumerus -11.8168 -5.48811 -88.3133
rradius 27.2844
rwrist 12.7422
rhand 18.5492 -8.7874
rfingers 7.12502
rthumb 43.1813 -32.969
lclavicle -1.71452e-014 -3.18055e-015
lhumerus -25.6872 0.64306 88.1118
lradius 34.8629
lwrist -2.01764
lhand -10.3636 12.5947
lfingers 7.12502
lthumb 15.6335 41.983
rfemur -18.617 0.0809885 24.9784
rtibia 28.2239
rfoot -16.0072 -17.1527
rtoes 3.80025
lfemur -21.0062 5.26744 -13.7016
ltibia 28.31
lfoot -7.19526 17.6505
ltoes -1.30505
103
root 4.36249 17.8072 -27.5551 9.97616 -5.05967 -5.90784
lowerback 5.26383 1.01616 3.57989
upperback 0.860371 1.60435 2.3646
thorax -2.03496 0.779915 0.31465
lowerneck -14.3191 -8.70893 -12.9444
upperneck 37.7133 -10.9668 4.48732
head 17.26 -5.78595 2.1433
rclavicle -2.73329e-015 -3.47873e-014
rhumerus -12.3638 -6.45599 -88.3956
rradius 26.4723
rwrist 13.4946
rhand 17.1573 -8.09873
rfingers 7.12502
rthumb 41.8782 -32.7294
lclavicle -2.73329e-015 -3.47873e-014
lhumerus -25.2649 0.257088 88.3258
lradius 35.5016
lwrist -1.70177
lhand -10.5285 12.6358
lfingers 7.12502
lthumb 15.4747 42.0365
rfemur -18.7352 -0.0402199 25.1115
rtibia 28.1801
rfoot -15.9745 -17.3473
rtoes 3.94415
lfemur -21.2582 5.2044 -13.5996
ltibia 28.339
lfoot -7.16529 17.3942
ltoes -1.4284
